<?xml version="1.0" encoding="utf-8"?>
<!-- Generator: Adobe Illustrator 15.1.0, SVG Export Plug-In . SVG Version: 6.00 Build 0)  -->
<!DOCTYPE svg PUBLIC "-//W3C//DTD SVG 1.1//EN" "http://www.w3.org/Graphics/SVG/1.1/DTD/svg11.dtd">
<svg version="1.1" id="圖層_1" xmlns="http://www.w3.org/2000/svg" xmlns:xlink="http://www.w3.org/1999/xlink" x="0px" y="0px"
	 width="155.906px" height="155.906px" viewBox="0 0 155.906 155.906" enable-background="new 0 0 155.906 155.906"
	 xml:space="preserve">
<path fill="#F7F8F8" d="M147.714,113.412l-1.634-0.809c-15.387-7.601-18.015-17.825-18.418-21.586l0.084-33.483
	c-2.056-21.04-18.381-37.586-39.624-41.717v-0.899c0-5.259-4.56-9.521-10.168-9.521c-5.617,0-10.166,4.262-10.166,9.523v0.803
	C44.836,20.061,27.485,39.094,27.485,61.87c0,1.399,0.21,26.682,0.229,28.898c-0.577,5.205-3.685,14.816-17.887,21.835l-1.635,0.809
	v22.714h48.779c2.639,6.799,11.031,11.772,20.982,11.772c9.946,0,18.338-4.97,20.98-11.772h48.777L147.714,113.412z"/>
<path d="M141.58,131.68"/>
</svg>
