<?xml version="1.0" encoding="utf-8"?>
<!-- Generator: Adobe Illustrator 15.1.0, SVG Export Plug-In . SVG Version: 6.00 Build 0)  -->
<!DOCTYPE svg PUBLIC "-//W3C//DTD SVG 1.1//EN" "http://www.w3.org/Graphics/SVG/1.1/DTD/svg11.dtd">
<svg version="1.1" id="圖層_1" xmlns="http://www.w3.org/2000/svg" xmlns:xlink="http://www.w3.org/1999/xlink" x="0px" y="0px"
	 width="155.906px" height="155.906px" viewBox="0 0 155.906 155.906" enable-background="new 0 0 155.906 155.906"
	 xml:space="preserve">
<g>
	<path fill="#F7F8F8" d="M151.603,64.371c0-4.219-3.426-7.644-7.645-7.644h-5.109l3.613-3.618c2.98-2.98,2.98-7.828,0-10.808
		c-2.98-2.981-7.832-2.981-10.809,0l-3.613,3.613v-5.109c0-4.032-3.141-7.348-7.105-7.625c-0.316-1.739-1.051-4.625-2.617-6.715
		c-1.789-2.387-5.289-4.129-6.945-4.859c-0.27-1.493-0.875-2.896-1.781-4.118c1.262-1.699,1.941-3.754,1.941-5.91
		c0-2.664-1.035-5.164-2.918-7.047c-3.523-3.527-9.059-3.851-12.957-0.976c-3.898-2.875-9.43-2.551-12.957,0.976
		c-1.48,1.481-2.438,3.344-2.781,5.367C78.397,9.133,76.212,8.628,73.147,9c-4.954,0.602-6.114,3.902-7.048,6.551
		c-0.742,2.109-1.383,3.93-3.625,5.027c-3.082,1.508-5.531,0.293-8.375-1.113c-3.121-1.543-6.655-3.293-10.539-0.184
		c-4.176,3.34-4.098,7.157-4.028,10.524c0.047,2.336,0.095,4.543-1.019,6.898c-1.41,2.973-3.03,4.746-4.606,6.461
		c-2.265,2.473-4.608,5.031-5.91,10.672c-1.569,6.812,3.716,13.363,9.408,17.887c-0.021,2.441-0.22,10.683-2.024,19.777
		c-1.897,9.574-9.07,22.188-10.613,24.824l-15.461,5.317c-2.113,0.726-3.773,2.254-4.559,4.194c-0.723,1.777-0.563,3.508,0.461,5
		c1.18,1.711,2.563,2.637,3.574,3.316c0.98,0.657,1.363,0.95,1.461,1.395c0.074,0.345-0.137,1.152-0.309,1.806
		c-0.453,1.741-1.402,5.375,2.754,6.558c1.66,0.477,3.121,0.469,4.301,0.453c2.036-0.011,2.32,0.047,2.747,1.203l0.049,0.148
		c1.371,3.72,2.779,7.574,6.672,7.013c1.056-0.149,2.068-0.493,3.044-0.825c1.149-0.387,2.573-0.871,3.008-0.531
		c0.34,0.262,0.737,0.637,1.16,1.031c1.192,1.118,2.823,2.652,4.571,2.652c0.64,0,1.295-0.207,1.949-0.711
		c2.616-2.063,3.965-5.441,3.51-8.823l-2-14.997c3.494-2.031,16.31-9.309,24.739-11.637c8.855-2.438,24.754-6.391,28.367-7.28
		c1.324,0.968,2.84,1.866,4.676,2.535c8.25,2.995,16.668-4.289,17.469-5.005c0.488-0.387,4.164-3.309,5.727-5.773
		c1.09-1.723,4.684-3.48,7.531-3.093c4.262,0.586,8.508-2.974,9.176-6.31c0.355-1.766-0.184-3.875-0.754-5.445
		c1.441-0.297,2.766-1.012,3.832-2.077c2.98-2.981,2.98-7.829,0-10.81l-3.613-3.613h5.109
		C148.177,72.016,151.603,68.585,151.603,64.371z M126.935,57.828c1.746,1.746,2.707,4.07,2.707,6.539s-0.961,4.793-2.707,6.539
		c-1.75,1.746-4.07,2.707-6.539,2.707c-2.473,0-4.793-0.961-6.539-2.707s-2.711-4.07-2.711-6.539s0.965-4.793,2.711-6.539
		C117.462,54.223,123.33,54.223,126.935,57.828z M90.892,12.727c1.273-1.274,2.965-1.973,4.766-1.973s3.492,0.699,4.766,1.973
		c2.625,2.625,2.625,6.902,0,9.527c-1.273,1.273-2.965,1.973-4.766,1.973s-3.492-0.7-4.766-1.973
		c-1.27-1.272-1.973-2.965-1.973-4.766C88.919,15.691,89.623,14,90.892,12.727z M38.224,151.847
		c-0.478-0.008-1.75-1.202-2.362-1.777c-0.478-0.449-0.931-0.871-1.388-1.227c-0.741-0.577-1.555-0.789-2.399-0.789
		c-1.194,0-2.444,0.427-3.597,0.816c-0.844,0.285-1.711,0.578-2.473,0.688c-1.183,0.159-1.927-1.457-3.216-4.95l-0.049-0.148
		c-1.231-3.34-3.754-3.319-5.782-3.297c-1.07,0.008-2.176,0.021-3.391-0.328c-0.926-0.266-1.148-0.328-0.535-2.676
		c0.285-1.082,0.578-2.203,0.34-3.293c-0.383-1.75-1.672-2.613-2.813-3.375c-0.926-0.621-1.883-1.261-2.715-2.469
		c-0.273-0.402-0.539-0.988-0.133-1.988c0.438-1.078,1.398-1.941,2.633-2.367l14.172-4.875c0.513,1.707,1.847,4.188,5.203,7.121
		c3.906,3.418,7.022,4.271,8.862,4.414l1.947,14.61C40.833,148.207,39.944,150.46,38.224,151.847z M136.248,93.328
		c-0.34,1.703-3.031,4.121-5.605,3.766c-3.879-0.539-8.766,1.552-10.668,4.552c-1.113,1.757-4.012,4.207-5.035,5
		c-0.035,0.026-0.066,0.054-0.098,0.082c-0.074,0.069-7.605,6.827-14.266,4.401c-1.727-0.625-3.133-1.516-4.395-2.504
		c-0.02-0.012-0.039-0.027-0.059-0.043c-0.852-0.668-1.637-1.379-2.414-2.082c-2.848-2.57-5.785-5.227-10.992-4.522
		c-3.854,0.526-7.435,1.011-10.772,0.151c-0.08-0.022-0.158-0.047-0.236-0.063c-2.971-0.824-5.753-2.75-8.37-6.71
		c-1.785-2.704-3.25-5.313-4.664-7.84c-2.418-4.31-4.598-8.2-7.582-10.903c-0.02-0.02-0.039-0.035-0.059-0.051
		c-1.164-1.046-2.445-1.91-3.915-2.55c-6.289-2.742-17.828-11.539-16-19.457c1.11-4.821,2.981-6.864,5.149-9.231
		c1.652-1.801,3.522-3.843,5.138-7.254c1.437-3.035,1.377-5.847,1.328-8.332c-0.068-3.254-0.115-5.605,2.823-7.957
		c2.194-1.754,3.949-1.015,7.125,0.551c2.984,1.481,6.707,3.324,11.203,1.117c3.418-1.672,4.426-4.535,5.233-6.84
		c0.896-2.539,1.435-4.07,4.414-4.433c4.709-0.567,6.259,1.437,6.579,1.965c0.32,1.207,0.863,2.34,1.613,3.347
		c-2.874,3.899-2.552,9.434,0.977,12.961c2.242,2.242,5.297,3.192,8.227,2.84c0.219,2.586,0.445,7.535-0.539,11.16
		c-0.234,0.856,0.27,1.735,1.121,1.965c0.852,0.234,1.734-0.269,1.965-1.121c1.215-4.469,0.836-10.363,0.586-12.91
		c0.555-0.266,1.09-0.586,1.598-0.961c3.895,2.875,9.43,2.551,12.957-0.973c1.465-1.465,2.418-3.304,2.77-5.304
		c1.543,0.793,3.41,1.953,4.371,3.238c1.152,1.535,1.738,3.805,2.008,5.242c-2.922,1.074-5.012,3.887-5.012,7.176v5.113
		l-3.617-3.613c-2.977-2.985-7.828-2.985-10.809,0c-2.98,2.98-2.98,7.828,0,10.808l3.613,3.614H96.83
		c-4.215,0-7.645,3.429-7.645,7.644s3.43,7.645,7.645,7.645h3.133c-4.445,2.094-11.57,5.589-15.688,8.312
		c-6.124,4.051-13.938,10.383-14.27,10.653c-0.683,0.554-0.789,1.562-0.229,2.25c0.553,0.683,1.562,0.789,2.25,0.229
		c0.077-0.062,8.019-6.5,14.015-10.465c2.859-1.89,7.375-4.238,11.309-6.168c-1.957,2.965-1.633,7.004,0.977,9.614
		c1.445,1.44,3.363,2.237,5.406,2.237s3.961-0.797,5.402-2.237l3.617-3.618v5.114c0,4.214,3.43,7.644,7.645,7.644
		s7.645-3.43,7.645-7.644V82.82l3.613,3.618c0.98,0.979,2.18,1.659,3.492,1.996C135.708,89.703,136.525,91.949,136.248,93.328z"/>
	<path fill="#F7F8F8" d="M79.168,71.156c2.231-2.226,3.177-5.355,2.61-8.402c2.555-1.75,4.098-4.633,4.098-7.785
		c0-3.153-1.543-6.035-4.098-7.785c0.566-3.047-0.379-6.172-2.61-8.403c-2.229-2.234-5.358-3.179-8.401-2.613
		c-1.754-2.555-4.633-4.094-7.789-4.094c-3.152,0-6.035,1.539-7.785,4.094c-3.047-0.566-6.172,0.379-8.403,2.613
		c-2.233,2.231-3.178,5.356-2.612,8.403c-2.556,1.75-4.095,4.632-4.095,7.785c0,3.152,1.539,6.035,4.095,7.785
		c-0.565,3.047,0.379,6.176,2.612,8.402c2.231,2.235,5.356,3.18,8.403,2.614c1.75,2.554,4.633,4.093,7.785,4.093
		c3.156,0,6.035-1.539,7.789-4.093C73.815,74.335,76.94,73.391,79.168,71.156z M62.978,64.215c-2.469,0-4.793-0.961-6.539-2.707
		c-3.605-3.606-3.605-9.473,0-13.078c1.746-1.746,4.07-2.711,6.539-2.711c2.473,0,4.793,0.965,6.539,2.711
		c3.604,3.605,3.604,9.472,0,13.078C67.771,63.253,65.451,64.215,62.978,64.215z"/>
</g>
</svg>
