<?xml version="1.0" encoding="utf-8"?>
<!-- Generator: Adobe Illustrator 15.1.0, SVG Export Plug-In . SVG Version: 6.00 Build 0)  -->
<!DOCTYPE svg PUBLIC "-//W3C//DTD SVG 1.1//EN" "http://www.w3.org/Graphics/SVG/1.1/DTD/svg11.dtd">
<svg version="1.1" id="圖層_1" xmlns="http://www.w3.org/2000/svg" xmlns:xlink="http://www.w3.org/1999/xlink" x="0px" y="0px"
	 width="155.906px" height="155.905px" viewBox="0 0 155.906 155.905" enable-background="new 0 0 155.906 155.905"
	 xml:space="preserve">
<path fill="#F7F8F8" d="M23.736,98.365c-0.014,0.962-6.415,2.393-6.415,2.393s-4.509-0.584-6.407-0.147
	c-4.034-0.705-8.867-1.84-9.356-0.993c-0.488,0.845,1.256,4.687,1.256,4.687l8.801,1.382c1.675,1.745,3.454,1.087,3.454,1.087
	s4.113,0.928,4.626,1.758c0.512,0.826,4.222,2.054,4.222,2.054c20.971,12.109,48.133,3.334,48.133,3.334
	c44.913-13.386,56.778-31.831,56.778-31.831s-2.893-2.597-5.488-3.166c31.789-10.45,31.092-49.1,31.092-49.1
	s-23.24-6.331-41.377,14.13c0,0,0.84-6.068,6.811-9.02c-8.672-2.796-32.715,29.342-32.715,29.342s1.867-7.456,6.082-11.191
	c-3.064,0.82-4.596,1.231-18.604,14.931c-14.007,13.704-20.23,12.475-20.59,12.569c-0.36,0.097-7.925-1.449-11.621-0.458
	c-3.695,0.988-12.622,5.894-12.622,5.894C31.343,94.299,23.751,97.245,23.736,98.365L23.736,98.365z M30.097,102.393
	c61.177-7.647,87.474-44.632,105.464-55.549C135.561,46.844,83.75,105.437,30.097,102.393L30.097,102.393z M30.097,102.393"/>
</svg>
