<?xml version="1.0" encoding="utf-8"?>
<!-- Generator: Adobe Illustrator 15.1.0, SVG Export Plug-In . SVG Version: 6.00 Build 0)  -->
<!DOCTYPE svg PUBLIC "-//W3C//DTD SVG 1.1//EN" "http://www.w3.org/Graphics/SVG/1.1/DTD/svg11.dtd">
<svg version="1.1" id="圖層_1" xmlns="http://www.w3.org/2000/svg" xmlns:xlink="http://www.w3.org/1999/xlink" x="0px" y="0px"
	 width="155.906px" height="155.904px" viewBox="0 0 155.906 155.904" enable-background="new 0 0 155.906 155.904"
	 xml:space="preserve">
<path fill="#F7F8F8" d="M88.074,37.672l10.703-11.003c1.888-1.941,1.888-5.032,0-6.974l-8.289-8.521
	c-0.94-0.968-2.232-1.514-3.584-1.514H67.586c-1.351,0-2.643,0.546-3.584,1.514l-8.288,8.521c-1.888,1.942-1.888,5.033,0,6.974
	l10.704,11.003c-25.655,4.955-45.067,27.155-45.067,53.723c0,30.198,25.075,54.766,55.895,54.766s55.895-24.567,55.895-54.766
	C133.141,64.826,113.729,42.626,88.074,37.672z M77.246,136.161c-25.307,0-45.895-20.081-45.895-44.766
	c0-24.683,20.588-44.764,45.895-44.764c25.307,0,45.895,20.081,45.895,44.764C123.141,116.08,102.553,136.161,77.246,136.161z"/>
</svg>
