<?xml version="1.0" encoding="utf-8"?>
<!-- Generator: Adobe Illustrator 15.1.0, SVG Export Plug-In . SVG Version: 6.00 Build 0)  -->
<!DOCTYPE svg PUBLIC "-//W3C//DTD SVG 1.1//EN" "http://www.w3.org/Graphics/SVG/1.1/DTD/svg11.dtd">
<svg version="1.1" id="圖層_1" xmlns="http://www.w3.org/2000/svg" xmlns:xlink="http://www.w3.org/1999/xlink" x="0px" y="0px"
	 width="155.906px" height="155.905px" viewBox="0 0 155.906 155.905" enable-background="new 0 0 155.906 155.905"
	 xml:space="preserve">
<path d="M141.58-62.104"/>
<path fill="#F7F8F8" d="M82.125,40.012l14.719-15.475c0.685-0.719,0.685-1.85,0-2.568l-8.1-8.516
	c-0.353-0.371-0.841-0.58-1.352-0.58H68.514c-0.511,0-0.999,0.209-1.352,0.58l-8.1,8.516c-0.685,0.719-0.685,1.85,0,2.57
	l14.72,15.473c-26.508,2.133-47.431,24.373-47.431,51.42c0,28.453,23.149,51.602,51.603,51.602
	c28.452,0,51.601-23.148,51.601-51.602C129.555,64.383,108.633,42.145,82.125,40.012z M69.313,16.6h17.279l6.328,6.654
	L77.954,38.988L62.985,23.254L69.313,16.6z M77.954,139.305c-26.398,0-47.875-21.475-47.875-47.873s21.477-47.875,47.875-47.875
	c26.397,0,47.873,21.477,47.873,47.875S104.352,139.305,77.954,139.305z"/>
</svg>
